<svg xmlns="http://www.w3.org/2000/svg" viewBox="0 0 24 24" width="24" height="24">
  <defs>
    <linearGradient id="deadlineGrad" x1="0" y1="0" x2="0" y2="1">
      <stop offset="0" stop-color="#FF8A7A"/>
      <stop offset="1" stop-color="#E63946"/>
    </linearGradient>
  </defs>
  <path d="M6 2.5h12a1 1 0 0 1 0 2h-.5v2.2c0 2.3-1.2 4.4-3.2 5.6l-.6.4a.4.4 0 0 0 0 .6l.6.4c2 1.2 3.2 3.3 3.2 5.6v2.2h.5a1 1 0 0 1 0 2H6a1 1 0 0 1 0-2h.5v-2.2c0-2.3 1.2-4.4 3.2-5.6l.6-.4a.4.4 0 0 0 0-.6l-.6-.4C7.7 9.1 6.5 7 6.5 4.7V2.5H6a1 1 0 0 1 0-2zm2.5 2v2.2c0 1.3.5 2.5 1.5 3.4h4c1-.9 1.5-2.1 1.5-3.4V4.5h-7zm0 15v-2.2c0-1.7.9-3.3 2.3-4.2L12 13l1.2.6c1.4.9 2.3 2.5 2.3 4.2v2.2h-7z" fill="url(#deadlineGrad)"/>
</svg>
